# xmcd CD database file
#
# Track frame offsets:
#	150
#	27513
#	48049
#	66670
#	88577
#	122915
#	144016
#	158771
#	201820
#	230994
#	257497
#	294029
#
# Disc length: 4372 seconds
#
# Revision: 0
# Processed by: cddbd v1.5.2PL0 Copyright (c) Steve Scherf et al.
# Submitted via: CDex 1.77
#
DISCID=a511120c
DTITLE=Ray Bryant - Blue Moods
DYEAR=1900
DGENRE=Jazz
TTITLE0=Sometimes I Feel Like a Motherless Child
TTITLE1=Good Morning Heartache
TTITLE2=Blues in the Closet
TTITLE3=Bag's Groove
TTITLE4=Blue Monk
TTITLE5=Since I Fell for You
TTITLE6=Lush Life
TTITLE7=Blues in G
TTITLE8=You and the Night and the Music
TTITLE9=Shake a Lady
TTITLE10=Lil Darlin'
TTITLE11=Whisper Not
EXTD=
EXTT0=
EXTT1=
EXTT2=
EXTT3=
EXTT4=
EXTT5=
EXTT6=
EXTT7=
EXTT8=
EXTT9=
EXTT10=
EXTT11=
PLAYORDER=
